<svg xmlns="http://www.w3.org/2000/svg" width="1500" height="400" viewBox="0 0 680 170">
  <rect width="680" height="170" fill="#f7f8fa"/>
  <line x1="0" y1="42" x2="680" y2="42" stroke="#e4e8ef" stroke-width="0.5"/>
  <line x1="0" y1="84" x2="680" y2="84" stroke="#e4e8ef" stroke-width="0.5"/>
  <line x1="0" y1="126" x2="680" y2="126" stroke="#e4e8ef" stroke-width="0.5"/>
  <line x1="85" y1="0" x2="85" y2="170" stroke="#e4e8ef" stroke-width="0.5"/>
  <line x1="170" y1="0" x2="170" y2="170" stroke="#e4e8ef" stroke-width="0.5"/>
  <line x1="255" y1="0" x2="255" y2="170" stroke="#e4e8ef" stroke-width="0.5"/>
  <line x1="340" y1="0" x2="340" y2="170" stroke="#e4e8ef" stroke-width="0.5"/>
  <line x1="425" y1="0" x2="425" y2="170" stroke="#e4e8ef" stroke-width="0.5"/>
  <line x1="510" y1="0" x2="510" y2="170" stroke="#e4e8ef" stroke-width="0.5"/>
  <line x1="595" y1="0" x2="595" y2="170" stroke="#e4e8ef" stroke-width="0.5"/>
  <rect x="0" y="0" width="680" height="3" fill="#1a1a1a"/>
  <rect x="40" y="50" width="3" height="70" fill="#1a1a1a" rx="1"/>
  <text x="58" y="84" font-family="Georgia,serif" font-size="26" font-weight="400" fill="#0d1424" letter-spacing="5">NEUROMEDIC</text>
  <text x="60" y="105" font-family="Arial,sans-serif" font-size="10" fill="#9aa4b8" letter-spacing="3">SISTEMA DE GESTIÓN MÉDICO-QUIRÚRGICA</text>
  <line x1="60" y1="115" x2="440" y2="115" stroke="#d8dce6" stroke-width="0.5"/>
  <text x="62" y="130" font-family="Arial,sans-serif" font-size="9" fill="#bcc4d0" letter-spacing="1">Gastón Jarén — Bioingeniería clínica</text>
  <circle cx="620" cy="85" r="36" fill="none" stroke="#dde2ec" stroke-width="1"/>
  <circle cx="620" cy="85" r="22" fill="none" stroke="#c8d4e8" stroke-width="0.5"/>
  <line x1="620" y1="49" x2="620" y2="121" stroke="#c8d4e8" stroke-width="0.5"/>
  <line x1="584" y1="85" x2="656" y2="85" stroke="#c8d4e8" stroke-width="0.5"/>
  <circle cx="620" cy="85" r="3" fill="#1a1a1a"/>
</svg>
